<svg width="14" height="14" viewBox="0 0 14 14" fill="none" xmlns="http://www.w3.org/2000/svg">
<path d="M1.82868 2.80079C2.40621 1.98753 3.15096 1.33336 4.00295 0.890952C4.85495 0.448543 5.79039 0.230252 6.73397 0.253655C10.4168 0.253655 12.6325 2.65928 12.6325 5.7225V9.36007C12.6423 10.5906 12.7911 11.8151 13.0757 13.006H8.3003L8.18569 12.0321H7.96411C7.19266 12.8724 6.15147 13.353 5.06067 13.3722C2.27183 13.3722 0.376953 11.3079 0.376953 9.00214C0.376953 6.9378 2.27183 4.84016 5.06067 4.84016C6.08158 4.80994 7.0891 5.09878 7.96411 5.67256C7.96411 4.00776 7.07016 2.99224 5.73305 2.99224C4.77253 3.05486 3.86323 3.48531 3.16579 4.20754L1.82868 2.80079ZM7.94119 8.02824C7.47858 7.72637 6.95214 7.56005 6.41306 7.54545C6.23747 7.54545 6.0636 7.58313 5.90137 7.65633C5.73915 7.72954 5.59174 7.83684 5.46758 7.9721C5.34342 8.10737 5.24493 8.26795 5.17773 8.44469C5.11054 8.62142 5.07595 8.81085 5.07595 9.00214C5.07595 9.19344 5.11054 9.38286 5.17773 9.55959C5.24493 9.73633 5.34342 9.89691 5.46758 10.0322C5.59174 10.1674 5.73915 10.2747 5.90137 10.348C6.0636 10.4212 6.23747 10.4588 6.41306 10.4588C7.00017 10.3997 7.54552 10.1027 7.94119 9.62644V8.02824Z" fill="#828282"/>
</svg>
