<svg width="15" height="18" viewBox="0 0 15 18" fill="none" xmlns="http://www.w3.org/2000/svg">
<path d="M14.3586 13.6527C14.369 14.8804 14.5178 16.1021 14.8018 17.2903H10.0111L9.89649 16.3164H9.67491C8.87106 17.175 7.79027 17.6562 6.66449 17.6565C5.88452 17.6548 5.11285 17.4822 4.39539 17.1489C3.67793 16.8156 3.02936 16.3285 2.48827 15.7165C1.94719 15.1045 1.52466 14.3801 1.24582 13.5866C0.966991 12.793 0.837559 11.9464 0.865234 11.0972C0.837559 10.2481 0.966991 9.40149 1.24582 8.60793C1.52466 7.81436 1.94719 7.09003 2.48827 6.47803C3.02936 5.86603 3.67793 5.37889 4.39539 5.04559C5.11285 4.71229 5.88452 4.53966 6.66449 4.53796C7.64735 4.52505 8.61375 4.8135 9.45333 5.37036H9.67491V0.375977H14.3586V13.6527ZM9.67491 13.9024V7.95078C9.21434 7.64277 8.68705 7.47331 8.14678 7.45967C6.80966 7.45967 5.69413 8.67497 5.69413 11.1056C5.69413 13.5362 6.7791 14.7931 8.09329 14.7931C8.70769 14.7351 9.27615 14.4149 9.67491 13.9024Z" fill="#828282"/>
</svg>
