<svg width="5" height="20" viewBox="0 0 5 20" fill="none" xmlns="http://www.w3.org/2000/svg">
<path d="M2.38603 5.45581C1.94994 5.43301 1.52957 5.27131 1.17701 4.99075C0.824451 4.71019 0.555197 4.3231 0.402616 3.87745C0.250035 3.4318 0.220832 2.94717 0.318621 2.48361C0.41641 2.02005 0.636892 1.59793 0.952755 1.26956C1.26862 0.941197 1.66598 0.721009 2.09559 0.636284C2.52521 0.551559 2.9682 0.606022 3.36968 0.792922C3.77116 0.979822 4.11348 1.29095 4.35423 1.68774C4.59498 2.08454 4.72357 2.54957 4.72407 3.02522C4.70805 3.68464 4.45318 4.31037 4.01513 4.76577C3.57707 5.22117 2.99141 5.46924 2.38603 5.45581ZM4.71643 19.2902H0.0327148V7.1539H4.71643V19.2902Z" fill="#828282"/>
</svg>
