<svg width="21" height="14" viewBox="0 0 21 14" fill="none" xmlns="http://www.w3.org/2000/svg">
<path d="M8.32235 4.99001C8.32235 3.77471 7.76459 3.16706 6.98524 3.16706C6.70248 3.18357 6.42634 3.26651 6.17577 3.41018C5.92519 3.55386 5.7061 3.75488 5.53352 3.99946V12.9893H0.857448V2.25142L0.467773 0.162109H3.85258L5.28902 1.58551H5.53352C5.90457 1.1562 6.35377 0.816003 6.85241 0.586669C7.35105 0.357334 7.88815 0.243917 8.42933 0.253673C9.15306 0.206776 9.87668 0.347552 10.5408 0.664444C11.2049 0.981336 11.7905 1.46531 12.2497 2.07662H12.4712C12.9011 1.53061 13.4296 1.08695 14.0237 0.773315C14.6179 0.459675 15.2651 0.282783 15.9248 0.253673C16.5153 0.218569 17.1062 0.315098 17.6614 0.537354C18.2165 0.759609 18.7241 1.10292 19.1533 1.54627C19.5824 1.98963 19.924 2.52371 20.1571 3.11584C20.3903 3.70797 20.5101 4.3457 20.5092 4.99001V13.006H15.7949V4.99001C15.7949 3.77471 15.2371 3.16706 14.4578 3.16706C14.175 3.18357 13.8989 3.26651 13.6483 3.41018C13.3977 3.55386 13.1787 3.75488 13.0061 3.99946V12.9893H8.32235V4.99001Z" fill="#828282"/>
</svg>
