<svg width="12" height="14" viewBox="0 0 12 14" fill="none" xmlns="http://www.w3.org/2000/svg">
<path d="M5.61453 13.6648C4.58989 13.7035 3.57279 13.4607 2.65685 12.9588C1.74091 12.457 0.955546 11.7122 0.373047 10.7931L1.71016 9.29476C2.06632 9.76348 2.50872 10.1457 3.00882 10.4166C3.50891 10.6876 4.0556 10.8414 4.6136 10.868C5.95072 10.868 6.48556 10.2603 6.48556 9.65269C6.48556 8.43739 1.04542 8.68711 1.04542 4.43356C1.04542 2.61061 2.9403 0.54627 6.28691 0.54627C7.19154 0.495243 8.09359 0.690776 8.91139 1.11517C9.7292 1.53957 10.437 2.17944 10.9706 2.97687L9.62587 4.43356C9.32413 4.08595 8.96215 3.80692 8.56084 3.61261C8.15954 3.41831 7.72687 3.31256 7.28783 3.3015C6.39387 3.3015 5.83611 3.91747 5.83611 4.40026C5.83611 5.61556 11.2992 5.37417 11.2992 9.61939C11.2992 11.6255 9.40429 13.6648 5.61453 13.6648Z" fill="#828282"/>
</svg>
