<svg width="13" height="14" viewBox="0 0 13 14" fill="none" xmlns="http://www.w3.org/2000/svg">
<path d="M12.4213 9.65276C12.4316 10.8805 12.5805 12.1022 12.8644 13.2903H8.07375L7.93622 12.3248H7.71464C6.9108 13.1834 5.83001 13.6646 4.70423 13.6649C1.91539 13.6649 0.0205078 11.6006 0.0205078 8.92858V0.912598H4.72715V8.92858C4.70166 9.15652 4.71974 9.38775 4.78024 9.60771C4.84074 9.82768 4.94235 10.0316 5.0787 10.2068C5.21504 10.3819 5.38317 10.5244 5.5725 10.6253C5.76183 10.7262 5.96829 10.7833 6.17887 10.7931C6.76598 10.734 7.31133 10.437 7.707 9.96075V0.912598H12.3907L12.4213 9.65276Z" fill="#828282"/>
</svg>
