<svg width="15" height="17" viewBox="0 0 15 17" fill="none" xmlns="http://www.w3.org/2000/svg">
<path d="M5.71976 11.6536V16.9975H0.554688V0H6.57552C12.1532 0 14.6058 2.67199 14.6058 5.82678C14.6058 8.98156 12.1532 11.6536 6.57552 11.6536H5.71976ZM9.28794 5.82678C9.30113 5.43677 9.23969 5.04804 9.10753 4.68529C8.97538 4.32255 8.77539 3.99373 8.52029 3.71973C8.26519 3.44573 7.96055 3.23254 7.62575 3.09372C7.29094 2.95491 6.93328 2.89349 6.57552 2.91339H5.71976V8.74016H6.57552C6.93107 8.75657 7.28589 8.69251 7.61758 8.55201C7.94927 8.41152 8.25062 8.19764 8.50262 7.92389C8.75462 7.65013 8.9518 7.32244 9.0817 6.96149C9.21161 6.60054 9.27143 6.21418 9.25738 5.82678H9.28794Z" fill="#828282"/>
</svg>
