<svg width="9" height="10" viewBox="0 0 9 10" fill="none" xmlns="http://www.w3.org/2000/svg">
<path d="M5.03623 2.28563V2.76009C5.03623 3.31642 4.83337 3.84996 4.47228 4.24335C4.11119 4.63673 3.62145 4.85773 3.11079 4.85773H2.67527C2.41918 4.85659 2.16546 4.91111 1.92895 5.01811C1.69244 5.12511 1.4779 5.28243 1.29789 5.48087C1.11788 5.6793 0.976012 5.91487 0.880593 6.17377C0.785173 6.43267 0.738119 6.70971 0.742186 6.98867C0.742184 7.26483 0.792236 7.53828 0.889476 7.79333C0.986717 8.04837 1.12923 8.27998 1.30883 8.47487C1.48844 8.66976 1.7016 8.8241 1.93608 8.92903C2.17057 9.03395 2.42177 9.0874 2.67527 9.08631H6.96167C7.47233 9.08631 7.96208 8.8653 8.32317 8.47192C8.68426 8.07854 8.88712 7.54499 8.88712 6.98867V2.28563C8.88712 1.7293 8.68426 1.19576 8.32317 0.802373C7.96208 0.408989 7.47233 0.187988 6.96167 0.187988C6.45101 0.187988 5.96127 0.408989 5.60018 0.802373C5.23909 1.19576 5.03623 1.7293 5.03623 2.28563Z" fill="#828282"/>
</svg>
