<svg width="9" height="10" viewBox="0 0 9 10" fill="none" xmlns="http://www.w3.org/2000/svg">
<path opacity="0.5" d="M3.90278 7.64169V7.15058C3.90278 6.59425 4.10564 6.06071 4.46673 5.66732C4.82782 5.27394 5.31756 5.05294 5.82822 5.05294H6.24082C6.49368 5.05735 6.74486 5.00744 6.98001 4.90608C7.21517 4.80472 7.42969 4.65388 7.61133 4.46218C7.79297 4.27048 7.93816 4.04168 8.03862 3.78884C8.13908 3.536 8.19284 3.26407 8.19682 2.9886C8.19992 2.70821 8.15138 2.43 8.05408 2.1704C7.95679 1.9108 7.8127 1.67509 7.63035 1.47721C7.44799 1.27932 7.23107 1.12327 6.9924 1.01829C6.75374 0.913305 6.49817 0.861518 6.24082 0.865989H1.94677C1.43744 0.874758 0.952049 1.10306 0.596895 1.50089C0.241741 1.89873 0.0457694 2.43368 0.0518973 2.9886V7.66666C0.0518973 8.22299 0.254756 8.75653 0.615846 9.14992C0.976937 9.5433 1.46668 9.7643 1.97734 9.7643C2.23213 9.76432 2.48439 9.70925 2.71951 9.60227C2.95462 9.4953 3.1679 9.33855 3.347 9.14111C3.5261 8.94368 3.66745 8.70948 3.76285 8.45209C3.85825 8.19471 3.90582 7.91925 3.90278 7.64169Z" fill="#828282"/>
</svg>
